<svg xmlns="http://www.w3.org/2000/svg" viewBox="0 0 24 24" fill="#22d3ee" width="32" height="32">
  <rect width="24" height="24" rx="6" fill="#18181b"/>
  <g>
    <path d="M3 13.5V12c0-.7.4-1.3 1-1.7l2.2-1.3c.5-.3 1.1-.5 1.7-.5h7.2c.6 0 1.2.2 1.7.5l2.2 1.3c.6.4 1 1 1 1.7v1.5c0 .3-.2.5-.5.5h-.5c-.3 0-.5-.2-.5-.5V12c0-.2-.1-.4-.3-.5l-2.2-1.3c-.2-.1-.4-.2-.7-.2H8.9c-.2 0-.5.1-.7.2l-2.2 1.3c-.2.1-.3.3-.3.5v1.5c0 .3-.2.5-.5.5h-.5c-.3 0-.5-.2-.5-.5z" fill="#22d3ee"/>
    <rect x="5" y="15" width="2" height="2" rx="1" fill="#22d3ee"/>
    <rect x="17" y="15" width="2" height="2" rx="1" fill="#22d3ee"/>
    <rect x="8" y="14" width="8" height="2" rx="1" fill="#22d3ee"/>
  </g>
</svg>
